<?xml version="1.0" encoding="UTF-8" standalone="no"?><!DOCTYPE svg PUBLIC "-//W3C//DTD SVG 1.1//EN" "http://www.w3.org/Graphics/SVG/1.1/DTD/svg11.dtd"><svg width="100%" height="100%" viewBox="0 0 150 900" version="1.1" xmlns="http://www.w3.org/2000/svg" xmlns:xlink="http://www.w3.org/1999/xlink" xml:space="preserve" xmlns:serif="http://www.serif.com/" style="fill-rule:evenodd;clip-rule:evenodd;stroke-linejoin:round;stroke-miterlimit:2;"><g><path d="M7.497,150.028c-4.128,0 -7.497,3.371 -7.497,7.502l0,15.005c0,4.141 3.372,7.502 7.497,7.502l14.993,0c4.123,0 7.497,-3.376 7.497,-7.502l0,-15.005c0,-4.128 -3.359,-7.502 -7.497,-7.502l-14.993,0Zm0,3.001l14.993,0c2.519,0 4.498,1.979 4.498,4.501l0,15.005c0,2.535 -1.964,4.501 -4.498,4.501l-14.993,0c-2.521,0 -4.498,-1.981 -4.498,-4.501l0,-15.005c0,-2.519 1.98,-4.501 4.498,-4.501Z" style="fill:#9193a4;fill-rule:nonzero;"/><path d="M26.964,157.422c0,-2.442 -1.983,-4.425 -4.425,-4.425l-15.134,0c-2.442,0 -4.425,1.983 -4.425,4.425l0,15.152c0,2.442 1.983,4.425 4.425,4.425l15.134,0c2.442,0 4.425,-1.983 4.425,-4.425l0,-15.152Z" style="fill:#fff;"/></g><g><path d="M37.521,150.039c-4.126,0 -7.494,3.368 -7.494,7.494l0,14.988c0,4.136 3.371,7.493 7.494,7.493l14.988,0c4.121,0 7.494,-3.372 7.494,-7.493l0,-14.988c0,-4.123 -3.358,-7.494 -7.494,-7.494l-14.988,0Zm0,2.998l14.988,0c2.518,0 4.496,1.977 4.496,4.496l0,14.988c0,2.532 -1.963,4.496 -4.496,4.496l-14.988,0c-2.519,0 -4.496,-1.979 -4.496,-4.496l0,-14.988c0,-2.516 1.98,-4.496 4.496,-4.496Z" style="fill:#9193a4;fill-rule:nonzero;"/><path d="M56.981,157.429c0,-2.442 -1.982,-4.424 -4.424,-4.424l-15.127,0c-2.442,0 -4.424,1.982 -4.424,4.424l0,15.128c0,2.441 1.982,4.423 4.424,4.423l15.127,0c2.442,0 4.424,-1.982 4.424,-4.423l0,-15.128Z" style="fill:#fff;"/><path d="M53.029,157.207l-10.285,10.254l-5.958,-5.936l-2.684,2.678l7.297,7.268l1.345,1.348l12.968,-12.934l-2.683,-2.678Z" style="fill-rule:nonzero;"/></g><path d="M1.801,120.019c-0.001,0 -0.001,0 -0.002,0c-0.984,0 -1.795,0.81 -1.795,1.795c0,0.485 0.197,0.951 0.546,1.288l11.896,11.895l-11.896,11.895c-0.35,0.338 -0.547,0.804 -0.547,1.29c0,0.985 0.81,1.795 1.795,1.795c0.487,0 0.953,-0.198 1.291,-0.548l11.894,-11.895l11.896,11.895c0.339,0.364 0.815,0.571 1.313,0.571c0.985,0 1.795,-0.81 1.795,-1.795c0,-0.498 -0.207,-0.974 -0.571,-1.313l-11.896,-11.895l11.896,-11.895c0.347,-0.337 0.544,-0.802 0.544,-1.287c0,-0.984 -0.811,-1.795 -1.795,-1.795c-0.018,0 -0.036,0 -0.054,0.001c-0.465,0.014 -0.908,0.208 -1.232,0.542l-11.896,11.897l-11.894,-11.897c-0.338,-0.348 -0.803,-0.545 -1.288,-0.544Z" style="fill:#00aeef;fill-rule:nonzero;"/><path d="M31.785,120.019c0,0 -0.001,0 -0.001,0c-0.985,0 -1.795,0.81 -1.795,1.795c0,0.485 0.197,0.951 0.545,1.288l11.897,11.895l-11.897,11.895c-0.349,0.338 -0.547,0.804 -0.547,1.29c0,0.985 0.81,1.795 1.795,1.795c0.487,0 0.954,-0.198 1.292,-0.548l11.894,-11.895l11.895,11.895c0.339,0.364 0.815,0.571 1.313,0.571c0.985,0 1.795,-0.81 1.795,-1.795c0,-0.498 -0.207,-0.974 -0.571,-1.313l-11.895,-11.895l11.895,-11.895c0.348,-0.337 0.544,-0.802 0.544,-1.287c0,-0.984 -0.81,-1.795 -1.795,-1.795c-0.018,0 -0.036,0 -0.053,0.001c-0.466,0.014 -0.908,0.208 -1.233,0.542l-11.895,11.897l-11.894,-11.897c-0.338,-0.348 -0.804,-0.545 -1.289,-0.544Z" style="fill:#fff;fill-rule:nonzero;"/><path d="M26.64,206.687l-23.309,0l0,-23.347l11.658,0l0,-3.337l-11.658,0c-1.848,0 -3.331,1.501 -3.331,3.337l0,23.347c0,1.842 1.483,3.343 3.331,3.343l23.309,0c1.838,0 3.337,-1.501 3.337,-3.343l0,-11.67l-3.337,0l0,11.67Zm-8.314,-26.684l0,3.337l5.975,0l-16.373,16.401l2.348,2.342l16.364,-16.391l0,5.987l3.337,0l0,-11.676l-11.651,0Z" style="fill-rule:nonzero;"/><path d="M29.7,237.26l-7.744,-7.818c-0.299,-0.285 -0.314,-0.734 -0.089,-1.078c3.175,-4.883 2.426,-11.584 -2.262,-15.587c-4.508,-3.852 -11.375,-3.72 -15.745,0.292c-5.017,4.605 -5.144,12.449 -0.378,17.212c4.063,4.074 10.357,4.568 14.97,1.512c0.344,-0.239 0.809,-0.209 1.093,0.09l7.728,7.788c0.345,0.345 0.884,0.345 1.213,0l1.214,-1.213c0.344,-0.329 0.344,-0.868 0,-1.198Zm-23.798,-9.406c-3.306,-3.31 -3.306,-8.689 0,-11.999c3.307,-3.31 8.686,-3.31 11.996,0c3.31,3.31 3.31,8.689 0,11.999c-3.31,3.31 -8.689,3.31 -11.996,0Z" style="fill:#00aeef;fill-rule:nonzero;"/><path d="M14.99,240.979l-4.613,9.181l-10.377,1.48l7.511,7.186l-1.768,10.108l9.247,-4.765l9.247,4.765l-1.761,-10.108l7.511,-7.186l-10.379,-1.48l-4.618,-9.181Zm0,5.481l2.992,5.951l6.637,0.948l-4.802,4.605l1.145,6.513l-5.972,-3.078l-0.566,0.283l-5.401,2.795l1.263,-6.513l-4.925,-4.605l6.638,-0.948l2.991,-5.951Z" style="fill:#02a64f;fill-rule:nonzero;"/><path d="M44.992,240.967l-4.618,9.19l-10.387,1.481l7.518,7.193l-1.77,10.118l9.257,-4.77l9.255,4.77l-1.762,-10.118l7.518,-7.193l-10.39,-1.481l-4.621,-9.19Zm0,5.487l2.995,5.956l6.642,0.949l-4.806,4.609l1.146,6.52l-5.977,-3.081l-0.567,0.283l-5.407,2.798l1.265,-6.52l-4.93,-4.609l6.644,-0.949l2.995,-5.956Z" style="fill:#00aeef;fill-rule:nonzero;"/><path d="M14.991,270.98l-4.612,9.181l-10.379,1.481l7.513,7.184l-1.771,10.108l9.249,-4.765l9.246,4.765l-1.76,-10.108l7.51,-7.184l-10.379,-1.481l-4.617,-9.181Z" style="fill:#02a64f;fill-rule:nonzero;"/><path d="M44.992,270.968l-4.616,9.189l-10.389,1.483l7.52,7.191l-1.772,10.118l9.257,-4.769l9.255,4.769l-1.762,-10.118l7.518,-7.191l-10.389,-1.483l-4.622,-9.189Z" style="fill:#00aeef;fill-rule:nonzero;"/><g><ellipse cx="14.993" cy="494.98" rx="14.993" ry="15.028" style="fill:#c50101;"/><rect x="12.852" y="485.319" width="4.284" height="13.417" style="fill:#fff;fill-rule:nonzero;"/><ellipse cx="14.993" cy="503.567" rx="2.677" ry="2.683" style="fill:#fff;"/></g><g><ellipse cx="44.995" cy="494.98" rx="15.008" ry="15.028" style="fill:#fff;"/><rect x="42.851" y="485.319" width="4.288" height="13.417" style="fill:#c50101;fill-rule:nonzero;"/><ellipse cx="44.995" cy="503.567" rx="2.68" ry="2.683" style="fill:#c50101;"/></g><g><path d="M27.13,321.762l0.72,1.45c0.2,0.4 0.03,0.89 -0.36,1.09l-3.33,1.67c-0.82,0.41 -1.81,0.07 -2.2,-0.76l-3.2,-6.8l-7.1,0c-0.81,0 -1.49,-0.59 -1.61,-1.39c-1.724,-12.07 -1.622,-11.322 -1.642,-11.627c0,-1.851 1.54,-3.336 3.412,-3.25c1.69,0.077 3.05,1.47 3.1,3.164c0.04,1.673 -1.18,3.069 -2.77,3.309l0.23,1.664l6.61,0c0.45,0 0.81,0.36 0.81,0.81l0,1.63c0,0.45 -0.36,0.81 -0.81,0.81l-6.14,0l0.23,1.63l6.72,0c0.633,-0.002 1.213,0.366 1.48,0.94l2.92,6.22l1.84,-0.92c0.4,-0.22 0.89,-0.04 1.09,0.36Z" style="fill-rule:nonzero;"/><path d="M17.74,320.052l-1.25,0c-0.39,2.75 -2.77,4.87 -5.64,4.87c-3.144,0 -5.697,-2.55 -5.697,-5.69c0,-2.11 1.154,-3.95 2.863,-4.94c-0.188,-1.32 -0.346,-2.43 -0.483,-3.37c-3.298,1.32 -5.635,4.55 -5.635,8.31c0,4.93 4.015,8.95 8.952,8.95c3.66,0 6.81,-2.21 8.19,-5.35l-1.3,-2.78Z" style="fill-rule:nonzero;"/></g><g><path d="M57.13,321.762l0.72,1.45c0.2,0.4 0.03,0.89 -0.36,1.09l-3.33,1.67c-0.82,0.41 -1.81,0.07 -2.2,-0.76l-3.2,-6.8l-7.1,0c-0.81,0 -1.49,-0.59 -1.61,-1.39c-1.724,-12.07 -1.622,-11.322 -1.642,-11.627c0,-1.851 1.54,-3.336 3.412,-3.25c1.69,0.077 3.05,1.47 3.1,3.164c0.04,1.673 -1.18,3.069 -2.77,3.309l0.23,1.664l6.61,0c0.45,0 0.81,0.36 0.81,0.81l0,1.63c0,0.45 -0.36,0.81 -0.81,0.81l-6.14,0l0.23,1.63l6.72,0c0.633,-0.002 1.213,0.366 1.48,0.94l2.92,6.22l1.84,-0.92c0.4,-0.22 0.89,-0.04 1.09,0.36Z" style="fill:#00aeef;fill-rule:nonzero;"/><path d="M47.74,320.052l-1.25,0c-0.39,2.75 -2.77,4.87 -5.64,4.87c-3.144,0 -5.697,-2.55 -5.697,-5.69c0,-2.11 1.154,-3.95 2.863,-4.94c-0.188,-1.32 -0.346,-2.43 -0.483,-3.37c-3.298,1.32 -5.635,4.55 -5.635,8.31c0,4.93 4.015,8.95 8.952,8.95c3.66,0 6.81,-2.21 8.19,-5.35l-1.3,-2.78Z" style="fill:#00aeef;fill-rule:nonzero;"/></g><path d="M24,342.061c-0.758,0 -1.494,0.14 -2.165,0.4l-3.637,-5.877c-0.204,-0.33 -0.565,-0.532 -0.953,-0.534l-3.009,0c-0.411,0 -0.747,0.346 -0.747,0.754l0,0.754c0,0.409 0.336,0.743 0.747,0.743l2.382,0l0.682,1.131l-5.316,0l0,-0.754c0,-0.408 -0.335,-0.754 -0.736,-0.754l-4.106,0c-0.626,0 -1.157,0.524 -1.147,1.152c0.01,0.613 0.511,1.101 1.125,1.101l2.281,0l-1.377,2.241c-0.628,-0.238 -1.308,-0.357 -2.014,-0.357c-3.29,-0.011 -5.991,2.662 -6.01,5.953c-0.019,3.334 2.673,6.041 5.995,6.041c2.792,0 5.145,-1.916 5.816,-4.504l2.425,0c0.391,0.003 0.757,-0.198 0.964,-0.53l4.016,-6.506l0.703,1.126c-1.191,1.104 -1.937,2.674 -1.937,4.427c0.01,3.226 2.717,5.943 5.942,5.987c3.302,0.032 6.008,-2.62 6.062,-5.9c0.044,-3.323 -2.652,-6.084 -5.986,-6.094Zm-15.251,3.453c0.455,0.487 0.778,1.104 0.919,1.786l-2.029,0l1.11,-1.786Zm-2.754,6.289c-2.066,0 -3.747,-1.689 -3.747,-3.745c0,-2.068 1.681,-3.746 3.747,-3.746c0.276,0 0.543,0.033 0.801,0.076l-2.131,3.453c-0.463,0.736 0.075,1.71 0.955,1.71l3.809,0c-0.582,1.321 -1.902,2.252 -3.434,2.252Zm7.613,-4.503l-1.667,0c-0.184,-1.483 -0.909,-2.804 -1.992,-3.746l1.169,-1.872l5.976,0l-3.486,5.618Zm10.176,4.492c-1.927,-0.097 -3.475,-1.667 -3.551,-3.594c-0.043,-0.985 0.314,-1.894 0.909,-2.576l2.079,3.345c0.216,0.357 0.693,0.465 1.039,0.238l0.639,-0.39c0.346,-0.227 0.454,-0.682 0.238,-1.039l-2.089,-3.356c0.304,-0.075 0.617,-0.111 0.931,-0.108c2.067,0 3.756,1.678 3.756,3.746c0,2.121 -1.797,3.853 -3.951,3.734Z" style="fill-rule:nonzero;"/><path d="M54.01,342.124c-0.758,0 -1.495,0.141 -2.167,0.401l-3.641,-5.882c-0.204,-0.331 -0.565,-0.533 -0.953,-0.534l-3.012,0c-0.412,0 -0.748,0.345 -0.748,0.754l0,0.755c0,0.408 0.336,0.743 0.748,0.743l2.383,0l0.683,1.133l-5.32,0l0,-0.756c0,-0.408 -0.336,-0.754 -0.737,-0.754l-4.11,0c-0.627,0 -1.158,0.525 -1.148,1.153c0.009,0.613 0.511,1.102 1.126,1.102l2.283,0l-1.379,2.243c-0.628,-0.238 -1.309,-0.358 -2.015,-0.358c-3.293,-0.01 -5.997,2.666 -6.016,5.96c-0.019,3.337 2.675,6.046 6.001,6.046c2.794,0 5.15,-1.918 5.822,-4.508l2.427,0c0.391,0.003 0.757,-0.198 0.964,-0.531l4.02,-6.512l0.704,1.127c-1.192,1.106 -1.939,2.677 -1.939,4.432c0.011,3.229 2.719,5.949 5.948,5.992c3.305,0.032 6.014,-2.622 6.068,-5.905c0.043,-3.327 -2.655,-6.09 -5.992,-6.101Zm-15.266,3.457c0.455,0.487 0.779,1.105 0.92,1.788l-2.03,0l1.11,-1.788Zm-2.756,6.295c-2.069,0 -3.75,-1.69 -3.75,-3.749c0,-2.069 1.681,-3.749 3.75,-3.749c0.276,0 0.544,0.033 0.802,0.076l-2.134,3.456c-0.463,0.737 0.076,1.712 0.957,1.712l3.812,0c-0.582,1.322 -1.904,2.254 -3.437,2.254Zm7.62,-4.507l-1.668,0c-0.185,-1.485 -0.911,-2.807 -1.994,-3.749l1.17,-1.875l5.981,0l-3.489,5.624Zm10.185,4.496c-1.928,-0.097 -3.478,-1.668 -3.554,-3.597c-0.043,-0.986 0.315,-1.896 0.911,-2.579l2.08,3.348c0.217,0.358 0.693,0.466 1.04,0.239l0.639,-0.39c0.347,-0.228 0.456,-0.683 0.239,-1.041l-2.091,-3.359c0.304,-0.075 0.618,-0.111 0.931,-0.108c2.07,0 3.76,1.68 3.76,3.749c0,2.124 -1.798,3.858 -3.955,3.738Z" style="fill:#fff;fill-rule:nonzero;"/><path d="M27.632,379.522l-8.339,-4.584l8.339,-4.569c0.689,-0.375 0.939,-1.251 0.548,-1.94l-1.142,-1.976c-0.407,-0.688 -1.283,-0.907 -1.956,-0.5l-8.136,4.933l0.204,-9.518c0.015,-0.782 -0.626,-1.439 -1.408,-1.439l-2.285,0c-0.782,0 -1.423,0.657 -1.408,1.439l0.219,9.518l-8.153,-4.933c-0.673,-0.407 -1.549,-0.188 -1.94,0.5l-1.142,1.976c-0.391,0.689 -0.157,1.565 0.532,1.94l8.341,4.569l-8.341,4.584c-0.689,0.376 -0.923,1.252 -0.532,1.94l1.142,1.987c0.391,0.673 1.267,0.908 1.94,0.485l8.153,-4.912l-0.219,9.497c-0.015,0.797 0.626,1.439 1.408,1.439l2.285,0c0.782,0 1.423,-0.642 1.408,-1.439l-0.204,-9.497l8.136,4.912c0.673,0.423 1.549,0.188 1.956,-0.485l1.142,-1.987c0.391,-0.688 0.141,-1.564 -0.548,-1.94Z" style="fill-rule:nonzero;"/><path d="M57.632,379.522l-8.339,-4.584l8.339,-4.569c0.689,-0.375 0.939,-1.251 0.548,-1.94l-1.142,-1.976c-0.407,-0.688 -1.283,-0.907 -1.956,-0.5l-8.136,4.933l0.204,-9.518c0.015,-0.782 -0.626,-1.439 -1.408,-1.439l-2.285,0c-0.782,0 -1.423,0.657 -1.408,1.439l0.219,9.518l-8.153,-4.933c-0.673,-0.407 -1.549,-0.188 -1.94,0.5l-1.142,1.976c-0.391,0.689 -0.157,1.565 0.532,1.94l8.341,4.569l-8.341,4.584c-0.689,0.376 -0.923,1.252 -0.532,1.94l1.142,1.987c0.391,0.673 1.267,0.908 1.94,0.485l8.153,-4.912l-0.219,9.497c-0.015,0.797 0.626,1.439 1.408,1.439l2.285,0c0.782,0 1.423,-0.642 1.408,-1.439l-0.204,-9.497l8.136,4.912c0.673,0.423 1.549,0.188 1.956,-0.485l1.142,-1.987c0.391,-0.688 0.141,-1.564 -0.548,-1.94Z" style="fill:#fff;fill-rule:nonzero;"/><path d="M74.978,240.937l-4.609,9.173l-10.366,1.478l7.503,7.179l-1.766,10.098l9.238,-4.76l9.238,4.76l-1.759,-10.098l7.503,-7.179l-10.369,-1.478l-4.613,-9.173Zm0,5.476l2.989,5.945l6.63,0.947l-4.797,4.601l1.144,6.506l-5.966,-3.075l-0.565,0.283l-5.397,2.792l1.262,-6.506l-4.92,-4.601l6.631,-0.947l2.989,-5.945Z" style="fill:#fff;fill-rule:nonzero;"/><path d="M74.979,270.938l-4.608,9.172l-10.368,1.48l7.505,7.177l-1.769,10.098l9.24,-4.76l9.237,4.76l-1.759,-10.098l7.503,-7.177l-10.369,-1.48l-4.612,-9.172Z" style="fill:#fff;fill-rule:nonzero;"/><g><ellipse cx="14.993" cy="464.963" rx="14.993" ry="14.989" style="fill:#c50101;"/><path d="M17.747,464.834l5.032,-5.029c0.796,-0.796 0.796,-2.087 0,-2.882c-0.796,-0.795 -2.087,-0.795 -2.882,0l-5.032,5.031l-5.031,-5.031c-0.796,-0.795 -2.087,-0.795 -2.882,0c-0.797,0.796 -0.797,2.086 0,2.882l5.031,5.029l-5.031,5.03c-0.797,0.796 -0.797,2.086 0,2.882c0.397,0.398 0.919,0.596 1.441,0.596c0.52,0 1.043,-0.198 1.441,-0.596l5.031,-5.03l5.032,5.03c0.397,0.398 0.919,0.597 1.441,0.597c0.521,0 1.043,-0.199 1.441,-0.597c0.796,-0.796 0.796,-2.086 0,-2.882l-5.032,-5.03Z" style="fill:#fff;fill-rule:nonzero;"/></g><g><ellipse cx="44.995" cy="464.963" rx="15.008" ry="14.989" style="fill:#fff;"/><path d="M47.904,464.963l5.08,-5.073c0.804,-0.803 0.804,-2.105 0,-2.907c-0.803,-0.802 -2.106,-0.802 -2.909,0l-5.08,5.074l-5.08,-5.074c-0.803,-0.802 -2.107,-0.802 -2.91,0c-0.804,0.803 -0.804,2.104 0,2.907l5.08,5.073l-5.08,5.073c-0.804,0.803 -0.804,2.104 0,2.907c0.402,0.401 0.929,0.601 1.455,0.601c0.526,0 1.054,-0.2 1.455,-0.601l5.08,-5.074l5.08,5.074c0.401,0.402 0.928,0.602 1.454,0.602c0.527,0 1.054,-0.2 1.455,-0.602c0.804,-0.803 0.804,-2.104 0,-2.907l-5.08,-5.073Z" style="fill:#c50101;fill-rule:nonzero;"/></g><path d="M17.604,431.113l0,2.476l-4.954,0l0,-2.476c0,-1.367 1.111,-2.477 2.477,-2.477c1.366,0 2.477,1.11 2.477,2.477Zm12.383,3.715c0,8.206 -6.654,14.86 -14.86,14.86c-8.207,0 -14.86,-6.654 -14.86,-14.86c0,-8.207 6.653,-14.86 14.86,-14.86c8.206,0 14.86,6.653 14.86,14.86Zm-9.907,-1.239l-1.238,0l0,-2.476c0,-2.051 -1.663,-3.715 -3.715,-3.715c-2.052,0 -3.715,1.664 -3.715,3.715l0,2.476l-1.239,0l0,7.43l9.907,0l0,-7.43Z" style="fill-rule:nonzero;"/><path d="M44.981,422.467c6.89,0 12.495,5.605 12.495,12.495c0,6.89 -5.605,12.495 -12.495,12.495c-6.89,0 -12.495,-5.605 -12.495,-12.495c0,-6.89 5.605,-12.495 12.495,-12.495Zm0,-2.499c-8.28,0 -14.994,6.713 -14.994,14.994c0,8.28 6.714,14.994 14.994,14.994c8.281,0 14.994,-6.714 14.994,-14.994c0,-8.281 -6.713,-14.994 -14.994,-14.994Zm4.998,21.241l-9.996,0l0,-7.497l9.996,0l0,7.497Zm-7.497,-7.497l0,-2.499c0,-1.379 1.121,-2.499 2.499,-2.499c1.378,0 2.499,1.12 2.499,2.499l0,2.499l1.25,0l0,-2.499c0,-2.069 -1.678,-3.748 -3.749,-3.748c-2.07,0 -3.748,1.679 -3.748,3.748l0,2.499l1.249,0Z" style="fill-rule:nonzero;"/><path d="M28.488,389.958l-26.989,0c-0.899,0 -1.499,0.6 -1.499,1.499l0,26.989c0,0.899 0.6,1.499 1.499,1.499l26.989,0c0.899,0 1.499,-0.6 1.499,-1.499l0,-26.989c0,-0.899 -0.6,-1.499 -1.499,-1.499Zm-1.5,26.988l-23.989,0l0,-23.989l23.989,0l0,23.989Z" style="fill-rule:nonzero;"/><g><path d="M58.503,389.958l-26.988,0c-0.9,0 -1.499,0.6 -1.499,1.499l0,26.989c0,0.899 0.599,1.499 1.499,1.499l26.988,0c0.9,0 1.5,-0.6 1.5,-1.499l0,-26.989c0,-0.899 -0.6,-1.499 -1.5,-1.499Zm-1.499,26.988l-23.99,0l0,-23.989l23.99,0l0,23.989Z" style="fill-rule:nonzero;"/><path d="M40.961,410.499c0.3,0.3 0.6,0.45 1.049,0.45c0.45,0 0.75,-0.15 1.05,-0.45l10.495,-10.495c0.6,-0.6 0.6,-1.5 0,-2.099c-0.599,-0.6 -1.499,-0.6 -2.099,0l-9.446,9.445l-3.448,-3.448c-0.6,-0.6 -1.499,-0.6 -2.099,0c-0.6,0.6 -0.6,1.499 0,2.099l4.498,4.498Z" style="fill-rule:nonzero;"/></g><g><path d="M88.461,389.977l-26.989,0c-0.899,0 -1.499,0.6 -1.499,1.499l0,26.989c0,0.899 0.6,1.499 1.499,1.499l26.989,0c0.899,0 1.499,-0.6 1.499,-1.499l0,-26.989c0,-0.899 -0.6,-1.499 -1.499,-1.499Zm-1.5,26.988l-23.989,0l0,-23.989l23.989,0l0,23.989Z" style="fill:#999;fill-rule:nonzero;"/><path d="M70.918,410.518c0.3,0.3 0.6,0.45 1.05,0.45c0.45,0 0.75,-0.15 1.049,-0.45l10.496,-10.495c0.6,-0.6 0.6,-1.5 0,-2.099c-0.6,-0.6 -1.499,-0.6 -2.099,0l-9.446,9.446l-3.449,-3.449c-0.599,-0.6 -1.499,-0.6 -2.099,0c-0.599,0.6 -0.599,1.499 0,2.099l4.498,4.498Z" style="fill:#999;fill-rule:nonzero;"/></g><g><path d="M118.448,389.977l-26.989,0c-0.899,0 -1.499,0.6 -1.499,1.499l0,26.989c0,0.899 0.6,1.499 1.499,1.499l26.989,0c0.899,0 1.499,-0.6 1.499,-1.499l0,-26.989c0,-0.899 -0.6,-1.499 -1.499,-1.499Zm-1.5,26.988l-23.989,0l0,-23.989l23.989,0l0,23.989Z" style="fill-rule:nonzero;"/><path d="M109.896,411.359l-9.414,0l0,-7.06l9.414,0l0,7.06Zm-7.06,-7.06l0,-2.354c0,-1.299 1.055,-2.353 2.353,-2.353c1.298,0 2.354,1.054 2.354,2.353l0,2.354l1.176,0l0,-2.354c0,-1.948 -1.58,-3.53 -3.53,-3.53c-1.95,0 -3.53,1.582 -3.53,3.53l0,2.354l1.177,0Z" style="fill-rule:nonzero;"/></g><g><path d="M148.501,389.977l-26.989,0c-0.899,0 -1.499,0.6 -1.499,1.499l0,26.989c0,0.899 0.6,1.499 1.499,1.499l26.989,0c0.899,0 1.499,-0.6 1.499,-1.499l0,-26.989c0,-0.899 -0.6,-1.499 -1.499,-1.499Zm-1.5,26.988l-23.989,0l0,-23.989l23.989,0l0,23.989Z" style="fill:#999;fill-rule:nonzero;"/><path d="M139.949,411.359l-9.414,0l0,-7.06l9.414,0l0,7.06Zm-7.06,-7.06l0,-2.354c0,-1.299 1.055,-2.353 2.353,-2.353c1.298,0 2.354,1.054 2.354,2.353l0,2.354l1.176,0l0,-2.354c0,-1.948 -1.58,-3.53 -3.53,-3.53c-1.95,0 -3.53,1.582 -3.53,3.53l0,2.354l1.177,0Z" style="fill:#999;fill-rule:nonzero;"/></g><g><path d="M51.73,62.31c0.534,0.535 0.534,1.414 0,1.949l-9.743,9.743c-0.535,0.534 -0.535,1.414 0,1.948l9.743,9.743c0.534,0.534 0.534,1.414 0,1.948l-1.949,1.949c-0.534,0.534 -1.414,0.534 -1.949,0l-12.665,-12.666c-1.069,-1.069 -1.069,-2.828 0,-3.897l12.665,-12.665c0.535,-0.535 1.415,-0.535 1.949,0l1.949,1.948Z" style="fill:#fff;fill-rule:nonzero;"/></g><g><path d="M21.73,62.31c0.534,0.535 0.534,1.414 0,1.949l-9.743,9.743c-0.535,0.534 -0.535,1.414 0,1.948l9.743,9.743c0.534,0.534 0.534,1.414 0,1.948l-1.949,1.949c-0.534,0.534 -1.414,0.534 -1.949,0l-12.665,-12.666c-1.069,-1.069 -1.069,-2.828 0,-3.897l12.665,-12.665c0.535,-0.535 1.415,-0.535 1.949,0l1.949,1.948Z" style="fill:#067eab;fill-rule:nonzero;"/></g><g><path d="M2.31,35.928c0.534,-0.534 1.412,-0.534 1.946,0l9.729,9.728c0.533,0.534 1.412,0.534 1.945,0l9.729,-9.728c0.534,-0.534 1.412,-0.534 1.946,0l1.946,1.945c0.533,0.534 0.533,1.413 0,1.946l-12.648,12.648c-1.067,1.067 -2.824,1.067 -3.891,0l-12.648,-12.648c-0.533,-0.533 -0.533,-1.412 0,-1.946l1.946,-1.945Z" style="fill:#067eab;fill-rule:nonzero;"/></g><g><path d="M32.273,35.715c0.534,-0.535 1.413,-0.535 1.947,0l9.738,9.738c0.535,0.534 1.414,0.534 1.948,0l9.738,-9.738c0.534,-0.535 1.413,-0.535 1.948,0l1.947,1.947c0.535,0.534 0.535,1.414 0,1.948l-12.659,12.659c-1.069,1.069 -2.827,1.069 -3.895,0l-12.66,-12.659c-0.534,-0.534 -0.534,-1.414 0,-1.948l1.948,-1.947Z" style="fill:#fff;fill-rule:nonzero;"/></g><g><path d="M57.64,24.156c-0.534,0.534 -1.413,0.534 -1.948,0l-9.738,-9.738c-0.534,-0.534 -1.413,-0.534 -1.947,0l-9.738,9.738c-0.535,0.534 -1.414,0.534 -1.948,0l-1.948,-1.948c-0.534,-0.534 -0.534,-1.413 0,-1.947l12.66,-12.66c1.068,-1.068 2.827,-1.068 3.895,0l12.66,12.66c0.534,0.534 0.534,1.413 0,1.947l-1.948,1.948Z" style="fill:#fff;fill-rule:nonzero;"/></g><g><path d="M27.627,24.14c-0.534,0.533 -1.412,0.533 -1.946,0l-9.729,-9.729c-0.534,-0.534 -1.412,-0.534 -1.946,0l-9.729,9.729c-0.533,0.533 -1.412,0.533 -1.945,0l-1.946,-1.946c-0.534,-0.534 -0.534,-1.412 0,-1.946l12.647,-12.647c1.068,-1.068 2.825,-1.068 3.892,0l12.647,12.647c0.534,0.534 0.534,1.412 0,1.946l-1.945,1.946Z" style="fill:#067eab;fill-rule:nonzero;"/></g><g><path d="M10.33,117.544c-0.534,-0.534 -0.534,-1.414 0,-1.948l9.743,-9.743c0.534,-0.535 0.534,-1.414 0,-1.949l-9.743,-9.743c-0.534,-0.534 -0.534,-1.414 0,-1.948l1.949,-1.949c0.534,-0.534 1.414,-0.534 1.948,0l12.666,12.666c1.069,1.069 1.069,2.828 0,3.897l-12.666,12.666c-0.534,0.534 -1.414,0.534 -1.948,0l-1.949,-1.949Z" style="fill:#067eab;fill-rule:nonzero;"/></g><g><path d="M40.439,117.856c-0.535,-0.535 -0.535,-1.414 0,-1.949l9.742,-9.743c0.535,-0.534 0.535,-1.414 0,-1.948l-9.742,-9.743c-0.535,-0.535 -0.535,-1.414 0,-1.949l1.948,-1.948c0.535,-0.535 1.414,-0.535 1.949,0l12.665,12.665c1.069,1.069 1.069,2.829 0,3.898l-12.665,12.665c-0.535,0.535 -1.414,0.535 -1.949,0l-1.948,-1.948Z" style="fill:#fff;fill-rule:nonzero;"/></g></svg>