<?xml version="1.0" encoding="UTF-8" standalone="no"?><!DOCTYPE svg PUBLIC "-//W3C//DTD SVG 1.1//EN" "http://www.w3.org/Graphics/SVG/1.1/DTD/svg11.dtd"><svg width="100%" height="100%" viewBox="0 0 28 28" version="1.1" xmlns="http://www.w3.org/2000/svg" xmlns:xlink="http://www.w3.org/1999/xlink" xml:space="preserve" xmlns:serif="http://www.serif.com/" style="fill-rule:evenodd;clip-rule:evenodd;stroke-linejoin:round;stroke-miterlimit:2;"><path d="M24,13.37c0,7.59 -10,14.63 -10,14.63c0,0 -10,-7.04 -10,-14.63c0,-5.68 4.17,-10.288 10,-10.288c5.83,0 10,4.608 10,10.288Z" style="fill:#00aeef;fill-rule:nonzero;"/><path d="M19.56,12.83c0,2.99 -2.49,5.42 -5.56,5.42c-3.07,0 -5.556,-2.43 -5.556,-5.42c0,-2.989 2.486,-5.415 5.556,-5.415c3.07,0 5.56,2.426 5.56,5.415Z" style="fill:#fff;fill-rule:nonzero;"/><g id="Flatware"><path d="M11.964,18.278c-0.013,-0.189 -0.012,-0.805 -0.018,-0.903c-0.02,-0.359 -0.047,-0.745 -0.051,-0.85c-0.026,-0.733 -0.119,-0.65 -0.305,-1.005c-0.186,-0.354 -0.691,-0.59 -0.811,-1.346c-0.119,-0.756 0.12,-2.504 0.293,-4.205c0.172,-1.7 0.185,-1.381 0.185,-1.145c0,0.236 -0.026,4.417 0.014,4.642c0.04,0.224 0.37,0.182 0.392,0.004c0.022,-0.177 0.031,-0.32 0.075,-1.23c0.042,-0.91 0.133,-3.559 0.186,-3.548c0.053,0.011 0.139,4.575 0.151,4.793c0.011,0.197 0.184,0.172 0.223,0.172l0.005,0c0.037,-0.001 0.158,0.024 0.17,-0.172c0.014,-0.218 0.127,-4.782 0.18,-4.793c0.054,-0.01 0.128,2.639 0.165,3.549c0.038,0.911 0.047,1.053 0.067,1.231c0.021,0.177 0.399,0.218 0.439,-0.006c0.04,-0.225 0.014,-4.406 0.014,-4.642c0,-0.236 0.013,-0.555 0.186,1.145c0.172,1.701 0.412,3.449 0.292,4.205c-0.12,0.756 -0.625,0.992 -0.81,1.346c-0.187,0.355 -0.28,0.272 -0.306,1.005l0.026,1.753l-0.762,0Z" style="fill:#00aeef;"/><path d="M15.377,18.278c0.005,-0.163 0.034,-0.674 0.035,-0.741c0.004,-0.334 -0.02,-0.518 -0.04,-0.756c-0.04,-0.472 -0.119,-1.37 -0.133,-1.7c-0.013,-0.33 -0.015,-6.057 0.014,-6.553c0.03,-0.495 0.714,-0.4 0.924,-0.291c0.21,0.108 0.316,0.291 0.316,0.291c0.573,0.649 0.731,1.898 0.758,3.303c0.026,1.404 -0.188,3.042 -0.267,3.537c-0.08,0.496 -0.47,1.389 -0.483,1.79c-0.004,0.107 0.066,0.849 0.072,1.12l-1.196,0Z" style="fill:#00aeef;"/></g></svg>